<svg height="512" viewBox="0 0 56 58" width="512" xmlns="http://www.w3.org/2000/svg">
    <g>
        <path id="Shape" d="m17.845 11c-4.7035529.0468859-8.72947736 3.3861701-9.645 8h14.8c1.6568542 0 3 1.3431458 3 3v14c-.0033144.3414397-.0655622.679743-.184 1h1.684c.2761424 0 .5-.2238576.5-.5v-15.16c.0279404-5.650167-4.5052493-10.2659406-10.155-10.34z"/>
        <path id="Shape" d="m13.936 31.293c-1.1202.9401918-2.7538.9401918-3.874 0l-.793-.67-7.538 6.377h20.538l-7.538-6.379z"/>
        <path id="Shape" d="m24 35.846v-13.069l-7.721 6.534z"/>
        <path id="Shape" d="m12.642 29.769 10.358-8.769h-22l10.359 8.766c.370581.3113719.9109669.3126355 1.283.003zm-4.642-5.769c0-.5522847.44771525-1 1-1h6c.5522847 0 1 .4477153 1 1s-.4477153 1-1 1h-6c-.55228475 0-1-.4477153-1-1z"/>
        <path id="Shape" d="m0 22.777v13.069l7.721-6.535z"/>
        <path id="Shape" d="m46 11h-11v-5h7c.5522847 0 1-.44771525 1-1v-4c0-.55228475-.4477153-1-1-1h-8c-.5522847 0-1 .44771525-1 1v5 5h-8.381c3.3571696 2.2200136 5.3778338 5.9751972 5.381 10v15.5c0 .2761424.2238576.5.5.5h25c.2761424 0 .5-.2238576.5-.5v-15.5c0-5.5228475-4.4771525-10-10-10zm8 22c0 1.1045695-.8954305 2-2 2h-8c-1.1045695 0-2-.8954305-2-2v-4c0-1.1045695.8954305-2 2-2h8c1.1045695 0 2 .8954305 2 2z"/>
        <path id="Shape" d="m35.5 39c-.2761424 0-.5.2238576-.5.5v14.5c0 .5522847-.4477153 1-1 1s-1-.4477153-1-1v-14.5c0-.2761424-.2238576-.5-.5-.5h-2c-.2761424 0-.5.2238576-.5.5v17c0 .2761424.2238576.5.5.5 1.576 0 6.429.01 8 .006.2761424 0 .5-.2238576.5-.5v-17c0-.2761424-.2238576-.5-.5-.5z"/>
        <rect id="Rectangle-path" height="4" rx=".5" width="8.001" x="44" y="29"/>
    </g>
</svg>